<?xml version="1.0" standalone="no"?>
<!DOCTYPE svg PUBLIC "-//W3C//DTD SVG 20010904//EN"
 "http://www.w3.org/TR/2001/REC-SVG-20010904/DTD/svg10.dtd">
<svg version="1.0" xmlns="http://www.w3.org/2000/svg"
 width="240.000000pt" height="240.000000pt" viewBox="0 0 240.000000 240.000000"
 preserveAspectRatio="xMidYMid meet">
<metadata>
Created by potrace 1.10, written by Peter Selinger 2001-2011
</metadata>
<g transform="translate(0.000000,240.000000) scale(0.100000,-0.100000)"
fill="#000000" stroke="none">
<path d="M311 2348 c-155 -123 -311 -308 -311 -368 0 -29 5 -23 59 58 87 128
257 289 371 349 24 13 24 13 -15 13 -33 -1 -51 -10 -104 -52z"/>
<path d="M715 2380 c-10 -11 -15 -20 -11 -20 4 0 2 -10 -5 -22 -6 -11 -16 -51
-21 -87 -5 -36 -11 -77 -14 -91 -3 -14 -7 -44 -9 -68 -3 -38 -1 -44 21 -52 28
-11 30 -22 9 -44 -8 -8 -15 -31 -15 -50 0 -31 -4 -37 -27 -42 -26 -6 -112 -51
-123 -64 -3 -3 -18 -13 -33 -23 -15 -10 -33 -30 -38 -45 -12 -31 -88 -287 -95
-317 -36 -172 -36 -181 -30 -365 3 -102 10 -200 16 -219 5 -19 7 -38 4 -43 -9
-14 34 -220 44 -214 4 2 7 -11 8 -29 0 -36 26 -83 51 -92 9 -4 29 -1 45 5 24
9 30 7 43 -11 21 -30 19 -37 -12 -36 -43 3 -55 0 -48 -11 4 -6 11 -8 16 -5 5
4 9 2 9 -4 0 -13 106 -45 120 -36 5 3 10 20 10 36 0 37 14 43 65 25 31 -11 41
-20 43 -40 2 -18 9 -26 23 -26 10 0 19 6 19 13 1 7 6 4 15 -7 7 -10 18 -15 24
-11 12 7 14 -10 11 -60 -2 -32 -35 -75 -57 -75 -10 0 -12 -7 -8 -20 4 -12 2
-20 -5 -20 -7 0 -10 -8 -7 -20 3 -13 -1 -21 -14 -25 -10 -4 -19 -11 -19 -17 0
-11 -26 -47 -79 -109 -31 -36 -32 -39 -12 -39 12 0 36 7 53 16 30 15 32 15 45
-2 7 -9 16 -14 20 -11 3 4 -3 17 -15 30 -29 31 -28 45 9 87 16 19 36 49 43 65
8 17 23 41 35 55 11 14 25 30 31 37 13 16 13 79 0 104 -6 10 -25 26 -43 35
-18 9 -43 27 -57 39 -14 13 -42 28 -63 33 -36 10 -41 9 -76 -23 -40 -37 -51
-36 -51 2 0 32 -36 66 -63 59 -35 -9 -54 11 -75 76 -36 112 -61 299 -67 508
-5 184 1 229 61 445 59 216 76 240 210 308 59 30 66 38 84 97 20 65 22 136 5
177 -17 41 -13 89 16 176 29 86 23 110 -16 67z m-6 -281 c0 8 3 12 6 9 9 -8
-14 -60 -23 -54 -11 6 -13 66 -4 80 4 6 10 -2 13 -19 4 -16 7 -24 8 -16z"/>
<path d="M762 2378 c0 -13 -3 -61 -5 -108 -4 -61 -1 -99 10 -134 13 -41 14
-55 3 -83 -10 -30 -9 -37 5 -54 13 -13 25 -17 43 -12 21 5 24 3 19 -11 -4 -10
-7 -24 -7 -32 0 -8 -9 -14 -19 -14 -17 0 -15 -4 10 -31 27 -29 39 -69 22 -69
-5 0 -19 19 -31 41 -14 24 -28 37 -33 32 -17 -17 -13 -70 9 -105 24 -38 29
-101 15 -158 -7 -26 -5 -47 9 -85 20 -56 22 -117 8 -254 -13 -121 -14 -447 -2
-486 5 -16 10 -77 11 -135 3 -153 9 -188 38 -207 22 -15 27 -15 59 0 19 9 35
22 35 29 1 7 3 42 5 78 2 36 6 108 9 160 3 52 4 140 3 195 -4 192 7 499 20
542 10 30 28 180 24 196 -1 4 1 7 6 7 4 0 8 49 9 108 1 91 5 114 22 143 25 40
25 43 7 58 -11 10 -21 9 -45 -4 -28 -14 -33 -14 -56 1 -31 20 -31 28 -4 53 19
17 20 24 11 48 -10 24 -16 80 -13 106 1 5 11 1 23 -7 20 -14 25 -14 55 5 l33
21 10 -27 c6 -15 10 -62 9 -104 -3 -115 39 -175 152 -215 68 -24 129 -62 129
-81 0 -8 5 -15 10 -15 6 0 10 -4 10 -9 0 -5 5 -22 12 -38 6 -15 11 -31 10 -35
-1 -5 2 -8 8 -8 5 0 7 -7 4 -15 -4 -8 -2 -15 3 -15 5 0 10 -6 11 -12 4 -41 15
-94 22 -103 13 -17 32 -115 28 -140 -3 -15 -1 -22 5 -18 6 4 8 -4 5 -21 -3
-14 -1 -26 4 -26 5 0 8 -27 7 -60 -1 -33 -6 -60 -11 -60 -5 0 -1 -11 8 -25 13
-20 13 -25 3 -25 -11 0 -11 -2 -2 -8 17 -11 2 -98 -16 -94 -7 1 -10 -2 -6 -8
3 -6 11 -7 17 -4 7 4 9 -7 6 -34 -2 -26 0 -38 7 -34 5 3 4 -2 -4 -11 -8 -10
-9 -17 -3 -17 7 0 8 -10 2 -30 -10 -36 -10 -34 -10 -61 0 -11 -4 -18 -8 -15
-5 3 -7 -13 -5 -34 4 -42 -6 -50 -31 -24 -15 14 -16 14 -16 0 0 -9 5 -16 10
-16 6 0 10 -8 10 -17 0 -15 2 -16 10 -3 7 11 10 7 10 -17 0 -36 16 -53 24 -26
3 10 8 49 11 87 6 71 15 102 15 52 0 -18 4 -26 13 -23 6 2 10 11 9 18 -10 40
-18 181 -13 229 4 30 3 120 0 200 -6 123 -13 164 -44 275 -20 72 -50 164 -68
205 -36 83 -55 100 -164 145 -79 33 -97 47 -130 98 -18 29 -21 42 -13 57 15
28 12 69 -10 162 -12 46 -23 94 -26 107 -10 50 -34 81 -61 81 -21 0 -24 -3
-15 -12 24 -24 14 -39 -20 -33 -21 3 -40 0 -52 -10 -17 -13 -18 -18 -6 -61 14
-48 9 -60 -34 -78 -7 -3 -6 -8 3 -14 8 -6 10 -15 6 -22 -6 -10 -2 -12 13 -8
15 4 22 2 22 -7 0 -8 -12 -16 -27 -18 l-28 -4 28 -2 c31 -1 38 -21 7 -21 -31
0 -24 -18 10 -25 17 -4 30 -10 30 -13 0 -12 -61 -42 -86 -42 -26 0 -68 35 -59
49 3 5 -4 34 -16 63 -16 42 -18 62 -12 89 8 30 14 35 49 39 34 4 39 8 36 30
-3 31 -20 41 -43 27 -13 -8 -15 -13 -6 -19 17 -10 -7 -32 -27 -25 -23 9 -20
31 9 77 24 37 24 40 6 40 -11 0 -22 -6 -24 -12 -4 -10 -6 -10 -6 0 -2 22 -19
13 -19 -10z m278 -56 c0 -5 -9 -17 -20 -27 -11 -10 -20 -13 -20 -7 0 6 -7 9
-15 6 -9 -4 -15 0 -15 9 0 9 11 17 28 20 15 2 30 5 35 6 4 0 7 -3 7 -7z m10
-63 c0 -18 -4 -28 -10 -24 -5 3 -10 20 -10 36 0 18 4 28 10 24 6 -3 10 -20 10
-36z m-25 -20 c4 -12 2 -26 -5 -33 -9 -8 -16 -5 -31 13 -10 12 -16 27 -13 32
10 17 43 9 49 -12z m-215 -209 c15 -28 1 -49 -17 -25 -15 22 -17 45 -3 45 5 0
14 -9 20 -20z m250 -51 c0 -6 -11 -24 -25 -41 -19 -22 -25 -42 -27 -81 -3
-107 -5 -134 -12 -162 -6 -25 -12 -68 -20 -165 -2 -14 -6 -32 -10 -41 -4 -9
-6 -20 -5 -25 3 -19 -2 -29 -9 -17 -4 6 -8 -7 -9 -30 0 -23 4 -45 10 -49 7 -4
6 -52 -3 -155 -8 -91 -10 -179 -5 -228 10 -101 8 -176 -5 -189 -13 -13 -13
-42 2 -82 6 -18 8 -39 3 -50 -5 -11 -9 -21 -10 -24 -1 -3 -5 -13 -10 -23 -4
-10 -2 -38 5 -63 7 -24 11 -47 8 -49 -2 -3 -18 -8 -35 -11 -30 -6 -31 -5 -37
38 -3 23 -6 90 -6 148 1 58 -3 119 -8 136 -14 44 -15 368 -2 434 15 72 15 277
0 295 -6 7 -10 17 -9 21 2 5 -3 27 -9 48 -13 46 -8 58 13 30 14 -19 14 -18 15
3 0 12 -4 25 -10 28 -16 10 -12 45 4 39 8 -3 17 -1 21 5 4 7 -7 14 -26 18 -30
6 -31 7 -11 14 15 6 22 17 22 34 0 18 5 25 20 25 12 0 21 7 22 18 3 41 -5 78
-21 97 -37 41 -33 52 16 50 52 -3 58 -10 67 -76 4 -27 11 -49 16 -49 11 0 12
4 14 48 2 39 66 118 66 81z m-256 -125 c7 -19 -2 -37 -15 -29 -12 8 -12 45 0
45 5 0 12 -7 15 -16z m34 -47 c2 -10 -3 -17 -12 -17 -10 0 -16 9 -16 21 0 24
23 21 28 -4z"/>
<path d="M1895 2380 c56 -37 80 -55 165 -131 47 -42 110 -104 140 -139 30 -35
60 -68 65 -74 30 -31 113 -155 123 -181 10 -29 10 -29 11 17 1 28 -5 55 -13
65 -8 10 -43 53 -77 97 -71 89 -133 154 -234 247 -129 116 -132 119 -172 119
l-38 0 30 -20z"/>
<path d="M1770 1515 c0 -3 6 -14 12 -25 18 -28 -15 -52 -61 -43 -24 4 -32 2
-27 -6 14 -22 90 -51 133 -51 l43 0 0 -38 c0 -21 5 -43 11 -49 7 -7 2 -12 -18
-18 -37 -9 -53 -23 -53 -46 0 -15 7 -19 34 -19 19 0 38 5 41 10 8 13 35 13 35
-1 0 -17 -48 -117 -60 -124 -18 -11 -25 4 -11 26 7 12 10 23 8 25 -2 2 -28 -2
-58 -10 -30 -8 -44 -15 -31 -15 13 -1 20 -5 17 -11 -4 -6 5 -10 19 -10 32 0
34 -22 4 -44 l-23 -17 27 6 c23 4 30 0 44 -27 24 -46 20 -154 -6 -190 -26 -36
-25 -50 6 -87 27 -32 54 -41 54 -17 0 8 6 16 14 19 9 4 12 14 9 27 -7 25 26
200 40 218 6 8 10 84 9 191 0 161 -3 183 -23 230 -25 58 -74 107 -93 92 -7 -6
-17 -6 -26 -1 -16 10 -70 14 -70 5z m115 -51 c37 -14 80 -161 61 -210 -6 -16
-8 -16 -26 1 -14 12 -17 25 -13 45 12 60 -26 120 -75 120 -24 0 -35 23 -19 39
12 12 46 14 72 5z m63 -371 c1 -52 -3 -76 -18 -103 -15 -27 -19 -30 -20 -15 0
11 -9 39 -20 63 -19 42 -19 43 0 62 10 10 23 28 30 39 18 35 26 24 28 -46z"/>
<path d="M1687 1359 c-10 -6 -24 -8 -32 -5 -9 3 -12 0 -8 -10 6 -17 -18 -19
-34 -3 -12 12 -28 -69 -19 -99 5 -15 10 -60 21 -194 3 -38 23 -68 45 -68 8 0
10 10 8 25 -3 14 -1 25 3 25 5 0 9 -4 9 -10 0 -5 7 -10 15 -10 8 0 15 -4 15
-10 0 -19 19 -10 26 13 14 42 11 58 -18 78 -15 11 -35 34 -43 49 -20 38 -33
180 -16 180 7 0 10 -10 6 -27 l-5 -28 12 28 c7 15 15 27 19 27 4 0 14 11 23
25 18 27 6 33 -27 14z"/>
<path d="M1696 1261 c-4 -5 8 -12 25 -16 33 -7 45 -3 34 14 -8 13 -52 14 -59
2z"/>
<path d="M1390 1128 c-3 -32 -3 -53 -1 -105 1 -28 4 -34 11 -23 5 9 5 46 1 85
-5 39 -9 58 -11 43z"/>
<path d="M2284 948 c-3 -5 3 -12 15 -15 22 -6 27 -24 12 -51 -5 -9 -12 -39
-15 -65 -4 -27 -15 -56 -26 -67 -11 -11 -20 -29 -20 -39 0 -11 -6 -22 -12 -24
-10 -4 -10 -6 0 -6 7 -1 15 6 18 14 10 26 34 17 41 -15 3 -17 10 -33 16 -37 6
-4 8 2 5 14 -4 16 0 22 18 26 29 5 32 2 27 -26 -2 -12 -15 -27 -29 -34 -13 -6
-22 -8 -19 -3 10 16 -23 32 -44 20 -17 -8 -25 -6 -43 12 -26 26 -65 100 -79
151 -12 46 -28 44 -52 -7 -10 -21 -27 -40 -38 -43 -22 -6 -22 -5 -7 -54 9 -33
9 -42 -5 -57 -21 -23 -21 -32 -1 -32 8 0 29 -13 47 -30 17 -16 33 -28 34 -26
6 6 -29 131 -43 153 -13 21 -10 53 5 53 15 0 66 -67 63 -83 -2 -11 3 -17 16
-17 20 0 62 -39 62 -59 0 -6 14 -17 30 -22 17 -6 30 -15 30 -20 0 -19 21 -8
30 16 8 20 16 25 45 25 34 0 49 20 25 35 -5 3 -10 13 -10 22 0 23 -29 53 -46
46 -8 -3 -14 0 -14 7 0 6 -4 8 -10 5 -17 -10 -11 27 8 48 12 15 13 18 2 12
-13 -7 -13 -6 -2 7 13 17 22 45 27 90 4 38 14 50 36 43 22 -7 27 19 7 32 -18
11 -97 12 -104 1z"/>
<path d="M2372 868 c-6 -6 -12 -18 -12 -25 0 -7 -5 -13 -11 -13 -8 0 -7 -5 1
-16 12 -13 15 -11 27 17 16 37 13 55 -5 37z"/>
<path d="M1543 709 c-32 -21 -39 -40 -33 -94 3 -26 -1 -25 49 -18 43 6 65 28
41 43 -9 5 -9 13 -2 26 7 12 6 25 -1 41 -12 28 -14 28 -54 2z"/>
<path d="M1474 633 c3 -7 -2 -14 -14 -18 -11 -3 -23 -17 -26 -31 -8 -30 -22
-31 -33 -1 -8 19 -10 20 -16 5 -6 -14 -11 -16 -28 -7 -33 18 -103 20 -117 4
-13 -16 -10 -47 6 -52 7 -2 9 8 6 27 -3 23 0 30 12 30 9 0 16 -7 16 -16 0 -26
-31 -84 -45 -84 -24 0 -75 -51 -75 -74 0 -12 -9 -40 -19 -62 -24 -50 -29 -76
-15 -81 6 -2 17 16 25 41 7 26 17 42 23 39 6 -4 8 -3 4 2 -13 14 53 127 67
113 2 -2 6 -42 9 -90 5 -79 -3 -168 -20 -220 -4 -14 -2 -19 7 -16 20 7 39 92
44 193 2 50 4 90 5 90 1 0 3 11 6 25 2 14 6 37 9 53 4 27 -9 38 -18 15 -4 -10
-6 -10 -6 -1 -1 7 8 21 19 31 20 18 22 18 70 2 72 -24 94 -18 108 33 8 30 8
45 0 52 -7 7 -9 6 -4 -2z"/>
<path d="M2275 530 c9 -30 24 -50 37 -50 18 0 3 43 -21 58 -23 16 -23 16 -16
-8z"/>
<path d="M2392 467 c-2 -16 -28 -63 -42 -77 -3 -3 -12 -17 -20 -31 -22 -39
-78 -107 -131 -159 -89 -88 -171 -160 -180 -160 -5 0 -9 -4 -9 -8 0 -5 -12
-13 -27 -19 l-28 -11 32 -1 c24 -1 47 12 100 54 124 101 162 139 238 239 73
94 76 100 72 145 -2 25 -4 38 -5 28z"/>
<path d="M0 432 c0 -32 8 -55 33 -92 17 -27 50 -77 71 -110 46 -72 102 -127
188 -187 58 -41 66 -43 130 -43 44 0 67 4 63 10 -4 6 -11 8 -16 5 -5 -4 -9 -2
-9 4 0 10 -21 8 -51 -4 -9 -3 -23 0 -30 7 -8 7 -32 22 -53 33 -39 20 -186 152
-186 168 0 4 -9 18 -21 30 -11 12 -23 34 -26 50 -3 15 -12 27 -19 27 -7 0 -11
6 -8 14 3 7 -2 16 -11 20 -9 3 -14 10 -10 15 3 5 -3 12 -14 16 -13 4 -17 12
-14 25 3 10 0 27 -6 37 -8 15 -10 10 -11 -25z"/>
<path d="M1101 387 c-39 -81 -23 -177 30 -177 27 0 24 -14 -17 -87 -35 -63
-35 -63 -17 -93 19 -32 47 -40 57 -15 3 10 -1 15 -12 15 -40 0 -41 21 -6 70
19 26 34 53 34 59 0 7 12 22 27 35 41 35 27 55 -34 46 -38 -6 -50 -5 -57 8
-13 22 -14 92 -1 100 11 7 35 56 35 72 0 24 -20 6 -39 -33z"/>
<path d="M873 282 c-11 -20 -25 -76 -32 -125 -11 -81 -10 -91 7 -120 18 -31
52 -49 52 -28 0 6 -9 20 -21 32 l-21 21 21 125 c12 70 20 128 18 129 -2 2 -13
-13 -24 -34z"/>
<path d="M917 289 c-3 -12 1 -35 9 -50 8 -16 14 -56 14 -94 0 -37 5 -76 11
-87 10 -18 8 -25 -11 -40 l-22 -18 25 0 c34 0 38 17 28 135 -5 70 -14 111 -28
138 -19 34 -21 35 -26 16z"/>
<path d="M542 127 c-30 -32 -34 -77 -6 -77 11 0 14 -5 10 -16 -14 -38 10 -32
55 12 56 55 65 87 22 82 -20 -2 -29 -9 -31 -25 -4 -24 -29 -50 -39 -39 -3 3 1
14 10 24 18 20 22 48 8 56 -4 3 -17 -5 -29 -17z"/>
<path d="M1191 28 c-8 -22 -6 -23 51 -26 33 -2 62 -1 65 2 7 7 -21 46 -33 46
-6 0 -17 -7 -24 -15 -7 -8 -19 -15 -26 -15 -8 0 -11 6 -8 15 4 8 1 15 -5 15
-7 0 -15 -10 -20 -22z"/>
</g>
</svg>
